<svg xmlns="http://www.w3.org/2000/svg" width="500" height="500" style="width:100%;height:100%;transform:translate3d(0,0,0);content-visibility:visible" viewBox="0 0 500 500"><defs><clipPath id="a"><path d="M0 0h500v500H0z"/></clipPath></defs><g clip-path="url(#a)"><path fill="none" stroke="#121330" stroke-linecap="round" stroke-linejoin="round" stroke-width="12.04" d="M-65.598-64.294c7.187-7.187 42.091 16.063 77.96 51.932 35.869 35.869 59.119 70.773 51.932 77.96" style="display:block" transform="translate(239.662 270.805)"/><path fill="none" stroke="#07A889" stroke-linecap="round" stroke-linejoin="round" stroke-width="12.04" d="M85.821 109.157c24.764-49.48-7.103-172.485-97.194-147.65-.424.117-.847.231-1.269.344" style="display:block" transform="translate(129.365 159.041)"/><path fill="none" stroke="#07A889" stroke-linecap="round" stroke-linejoin="round" stroke-width="12.04" d="M-65.555-54.473a260.31 260.31 0 0 1 5.102-3.841C-29.292-81.147 49.852-80.24 59.22-17.285" style="display:block" transform="translate(306.582 355.237)"/><path fill="none" stroke="#07A889" stroke-linecap="round" stroke-linejoin="round" stroke-width="12.04" d="M10.546-42.884c-.6 13.654-24.067 14.845-23.545 29.11C-12.465.834 12.15-.066 12.684 14.542c.534 14.608-24.082 15.507-23.548 30.115 0 0 0 0 0 0 .018.488.063.957.133 1.41" style="display:block" transform="translate(277.862 149.021)"/><path fill="none" stroke="#07A889" stroke-linecap="round" stroke-linejoin="round" stroke-width="12.04" d="M10.546-42.884c-.6 13.654-24.067 14.845-23.545 29.11C-12.465.834 12.15-.066 12.684 14.542c.534 14.608-24.082 15.507-23.548 30.115 0 0 0 0 0 0 .018.488.063.957.133 1.41" style="display:block" transform="rotate(44 -93.48 516.942)"/><path fill="none" stroke="#121330" stroke-linecap="round" stroke-linejoin="round" stroke-width="12.04" d="M101.804 28.088c-7.187 7.187-42.09-16.064-77.959-51.933s-59.12-70.772-51.933-77.959l-1.289 3.43-71.96 190.685c-2.128 5.639 3.387 11.154 9.026 9.026l190.685-71.96 3.43-1.289z" style="display:block" transform="translate(202.152 308.315)"/><path fill="none" stroke="#121330" stroke-linecap="round" stroke-linejoin="round" stroke-width="12.04" d="M-3.639 6.119 3.639-6.119" style="display:block" transform="translate(224.825 101.699)"/><path fill="none" stroke="#121330" stroke-linecap="round" stroke-linejoin="round" stroke-width="12.04" d="M7.648-4.641-7.648 4.641" style="display:block" transform="translate(356.339 395.936)"/><path fill="none" stroke="#07A889" stroke-linecap="round" stroke-linejoin="round" stroke-width="12.04" d="M-3.639 6.119 3.639-6.119" style="display:block" transform="translate(412.481 324.473)"/><path fill="none" stroke="#07A889" stroke-linecap="round" stroke-linejoin="round" stroke-width="12.04" d="M-5.034 5.034 5.034-5.034" style="display:block" transform="translate(104.916 263.923)"/><path fill="none" stroke="#121330" stroke-linecap="round" stroke-linejoin="round" stroke-width="12.04" d="M5.034 5.034-5.034-5.034" style="display:block" transform="translate(376.08 116.3)"/><path fill="none" stroke="#07A889" stroke-linecap="round" stroke-linejoin="round" stroke-width="12.04" d="M2.569 6.639-2.569-6.639" style="display:block" transform="translate(254.356 393.971)"/><path fill="none" stroke="#121330" stroke-linecap="round" stroke-linejoin="round" stroke-width="12.04" d="M-5.396-4.643 5.396 4.643" style="display:block" transform="translate(133.089 177.67)"/><path fill="none" stroke="#121330" stroke-linecap="round" stroke-linejoin="round" stroke-width="12.04" d="M1.929 6.852-1.929-6.852" style="display:block" transform="translate(390.817 243.186)"/><path fill="none" style="display:none"/><path fill="none" style="display:none"/><path fill="none" style="display:none"/><path fill="none" style="display:none"/><path fill="none" style="display:none"/><path fill="none" style="display:none"/><path fill="none" style="display:none"/><path fill="none" style="display:none"/><g class="com" style="display:none"><path/><path/><path/><path/><path/><path/><path/><path/><path/><path/><path/><path/></g></g></svg>