<svg xmlns="http://www.w3.org/2000/svg" width="430" height="430" style="width:100%;height:100%;transform:translate3d(0,0,0);content-visibility:visible" viewBox="0 0 430 430"><defs><clipPath id="a"><path d="M0 0h430v430H0z"/></clipPath><clipPath id="e"><path d="M0 0h430v430H0z"/></clipPath><clipPath id="d"><path d="M0 0h430v430H0z"/></clipPath><clipPath id="c"><path d="M0 0h430v430H0z"/></clipPath><clipPath id="b"><path d="M0 0h430v430H0z"/></clipPath></defs><g fill="none" clip-path="url(#a)"><g clip-path="url(#b)" style="display:none"><path class="primary" style="display:none"/><path class="primary" style="display:none"/><path class="secondary" style="display:none"/></g><g clip-path="url(#c)" style="display:none"><path class="primary" style="display:none"/><path class="primary" style="display:none"/><path class="secondary" style="display:none"/></g><g stroke-linecap="round" stroke-linejoin="round" stroke-width="12" clip-path="url(#d)" style="display:block"><path stroke="#08A88A" d="M-35-35v70h70v-70h-70z" class="primary" style="display:block" transform="translate(215 285)"/><path stroke="#08A88A" d="M-90 63.5V0c0-49.706 40.294-90 90-90S90-49.706 90 0v63.5" class="primary" style="display:block" transform="translate(215.283 124.906)"/><path stroke="#121331" d="M.148-95H-130V55c0 22.091 17.909 40 40 40H90c22.091 0 40-17.909 40-40V-95s0 0 0 0H.148" class="secondary" style="display:block" transform="translate(215 285)"/></g><g clip-path="url(#e)" style="display:none"><path class="primary" style="display:none"/><path class="primary" style="display:none"/><path class="secondary" style="display:none"/></g></g></svg>