<svg xmlns="http://www.w3.org/2000/svg" width="500" height="500" style="width:100%;height:100%;transform:translate3d(0,0,0);content-visibility:visible" viewBox="0 0 500 500"><defs><clipPath id="n"><path d="M0 0h500v500H0z"/></clipPath><clipPath id="s"><path d="M0 0h500v500H0z"/></clipPath><clipPath id="t"><path d="M0 0h500v500H0z"/></clipPath><clipPath id="v"><path d="M0 0h500v500H0z"/></clipPath><clipPath id="B"><path d="M0 0h500v500H0z"/></clipPath><clipPath id="A"><path d="M0 0h500v500H0z"/></clipPath><clipPath id="y"><path d="M0 0h500v500H0z"/></clipPath><clipPath id="x"><path d="M0 0h500v500H0z"/></clipPath><clipPath id="q"><path d="M0 0h500v500H0z"/></clipPath><clipPath id="l"><path d="M0 0h500v500H0z"/></clipPath><clipPath id="o"><path d="M0 0h500v500H0z"/></clipPath><clipPath id="m"><path d="M0 0h500v500H0z"/></clipPath><mask id="C" mask-type="alpha"><use xmlns:ns1="http://www.w3.org/1999/xlink" ns1:href="#a"/></mask><mask id="z" mask-type="alpha"><g filter="url(#b)"><path fill="#fff" d="M0 0h500v500H0z" opacity="0"/><use xmlns:ns2="http://www.w3.org/1999/xlink" ns2:href="#c"/></g></mask><mask id="w" mask-type="alpha"><g filter="url(#d)"><path fill="#fff" d="M0 0h500v500H0z" opacity="0"/><use xmlns:ns3="http://www.w3.org/1999/xlink" ns3:href="#e"/></g></mask><mask id="u" mask-type="alpha"><g filter="url(#f)"><path fill="#fff" d="M0 0h500v500H0z" opacity="0"/><use xmlns:ns4="http://www.w3.org/1999/xlink" ns4:href="#g"/></g></mask><mask id="r" mask-type="alpha"><g filter="url(#h)"><path fill="#fff" d="M0 0h500v500H0z" opacity="0"/><use xmlns:ns5="http://www.w3.org/1999/xlink" ns5:href="#i"/></g></mask><mask id="p" mask-type="alpha"><g filter="url(#j)"><path fill="#fff" d="M0 0h500v500H0z" opacity="0"/><use xmlns:ns6="http://www.w3.org/1999/xlink" ns6:href="#k"/></g></mask><g id="g" style="display:none"><path/><path fill-opacity="0" stroke-linecap="round" stroke-linejoin="round"/></g><g id="e" style="display:none"><path/><path fill-opacity="0" stroke-linecap="round" stroke-linejoin="round"/></g><g id="a" style="display:none"><path fill-opacity="0"/><path/></g><g id="c" style="display:none"><path/><path fill-opacity="0" stroke-linecap="round" stroke-linejoin="round"/></g><g id="i" clip-path="url(#l)" style="display:none"><path style="display:none"/><path style="display:none"/></g><g id="k" clip-path="url(#m)" style="display:block"><g style="display:block"><path fill-opacity="0" stroke="#121330" stroke-linecap="round" stroke-linejoin="round" stroke-width="0" d="M295.1 17s-23.813 33.027-34.942 60.522c-6.462 17.535-9.676 53.305-9.676 53.305l.121 252.296s1.728-35.798 8.731-43.919c8.203-17.413 35.766-42.203 35.766-42.203V17z"/><path fill="red" d="M295.1 17s-23.813 33.027-34.942 60.522c-6.462 17.535-9.676 53.305-9.676 53.305l.121 252.296s1.728-35.798 8.731-43.919c8.203-17.413 35.766-42.203 35.766-42.203V17z"/></g><g style="display:none"><path fill-opacity="0" stroke-linecap="round" stroke-linejoin="round"/><path/></g><g style="display:none"><path fill-opacity="0" stroke-linecap="round" stroke-linejoin="round"/><path/></g><g style="display:none"><path fill-opacity="0" stroke-linecap="round" stroke-linejoin="round"/><path/></g></g><filter id="b" width="100%" height="100%" x="0%" y="0%" filterUnits="objectBoundingBox"><feComponentTransfer in="SourceGraphic"><feFuncA tableValues="1.0 0.0" type="table"/></feComponentTransfer></filter><filter id="d" width="100%" height="100%" x="0%" y="0%" filterUnits="objectBoundingBox"><feComponentTransfer in="SourceGraphic"><feFuncA tableValues="1.0 0.0" type="table"/></feComponentTransfer></filter><filter id="f" width="100%" height="100%" x="0%" y="0%" filterUnits="objectBoundingBox"><feComponentTransfer in="SourceGraphic"><feFuncA tableValues="1.0 0.0" type="table"/></feComponentTransfer></filter><filter id="h" width="100%" height="100%" x="0%" y="0%" filterUnits="objectBoundingBox"><feComponentTransfer in="SourceGraphic"><feFuncA tableValues="1.0 0.0" type="table"/></feComponentTransfer></filter><filter id="j" width="100%" height="100%" x="0%" y="0%" filterUnits="objectBoundingBox"><feComponentTransfer in="SourceGraphic"><feFuncA tableValues="1.0 0.0" type="table"/></feComponentTransfer></filter></defs><g clip-path="url(#n)"><g fill="none" clip-path="url(#o)" opacity="0" style="display:block"><g stroke="#07A889" stroke-linecap="round" stroke-linejoin="round" stroke-width="12.6" mask="url(#p)" style="display:block"><path d="m163.734 422.794.289 21.956 27.853-25.5 27.312 25-.136-72.98m-56.01-.93.692 52.454"/><path d="M250.447 149.531 250 383.123s-22.489-16.134-48.5-16.33c-39-.293-123 15.47-123 15.47V124.274s0 0 0 0 70.02-19.35 122-20.859c31.5-.915 50 18.492 50 18.492l-.053 27.624m.101-3.306.471 236.898s23.339-16.134 50.333-16.33C341.826 366.5 429 382.263 429 382.263V124.274s0 0 0 0-72.666-19.35-126.61-20.859c-32.69-.915-51.89 18.492-51.89 18.492l.048 24.318"/></g><path stroke="#07A889" stroke-linecap="round" stroke-linejoin="round" stroke-width="12.6" d="M-39.9-225s-23.812 33.027-34.942 60.522c-6.462 17.535-9.676 53.305-9.676 53.305l.121 252.296s1.728-35.798 8.731-43.919C-67.463 79.791-39.9 55.001-39.9 55.001v-280z" opacity="1" style="display:block" transform="translate(335 242)"/><path style="display:none"/><path style="display:none"/><path style="display:none"/></g><g fill="none" clip-path="url(#q)" opacity="0" style="display:block"><g stroke="#07A889" stroke-linecap="round" stroke-linejoin="round" stroke-width="12.6" mask="url(#r)" style="display:block"><path d="m163.734 422.794.289 21.956 27.853-25.5 27.312 25-.136-72.98m-56.01-.93.692 52.454"/><path d="M250.447 149.531 250 383.123s-22.489-16.134-48.5-16.33c-39-.293-123 15.47-123 15.47V124.274s0 0 0 0 70.02-19.35 122-20.859c31.5-.915 50 18.492 50 18.492l-.053 27.624m.101-3.306.471 236.898s23.339-16.134 50.333-16.33C341.826 366.5 429 382.263 429 382.263V124.274s0 0 0 0-72.666-19.35-126.61-20.859c-32.69-.915-51.89 18.492-51.89 18.492l.048 24.318"/></g><path stroke="#07A889" stroke-linecap="round" stroke-linejoin="round" stroke-width="12.6" d="M94.5-117.726s-72.87-19.35-126.965-20.859C-65.247-139.5-84.5-120.093-84.5-120.093l.52 261.216s23.404-16.134 50.474-16.33C7.081 124.5 94.5 140.263 94.5 140.263v-257.989z" opacity="1" style="display:block" transform="translate(335 242)"/><path style="display:none"/></g><g clip-path="url(#s)" style="display:block"><g clip-path="url(#t)" mask="url(#u)" style="display:block"><g clip-path="url(#v)" mask="url(#w)" style="display:block"><g fill="none" clip-path="url(#x)" style="display:none"><path style="display:none"/><g style="display:none"><path/><path/><path/></g><path style="display:none"/><path style="display:none"/><path style="display:none"/></g><g fill="none" clip-path="url(#y)" mask="url(#z)" style="display:none"><path style="display:none"/><g style="display:none"><path/><path/><path/></g><path style="display:none"/><path style="display:none"/><path style="display:none"/></g><g fill="none" clip-path="url(#A)" style="display:none"><path style="display:none"/><g style="display:none"><path/><path/><path/></g><path style="display:none"/><path style="display:none"/><path style="display:none"/></g><path fill="none" style="display:none"/><g clip-path="url(#B)" mask="url(#C)" style="display:none"><path fill="none" style="display:none"/></g><g fill="none" stroke-linecap="round" stroke-linejoin="round" stroke-width="12.6" style="display:block"><path stroke="#07A889" d="m222.875 404.963-1.291 49.25-25.5-25.5-25.005 25 .414-48.497"/><path stroke="#121330" d="M364.756 154.814v-57.02H178.95c-32.142 0-35.478 23.765-35.023 32.082"/><path stroke="#121330" d="M364.756 157.256s-154.191.172-185.578-.01c-36.047-.209-35.478-27.566-35.478-27.566l-.456 239.77s1.365 32.009 36.843 32.431c17.283.206 184.669 0 184.669 0V157.256z"/><path stroke="#07A889" d="M334.756 126.487s0 0 0 0-88.898-.024-142.808-.102m-4.913-.007"/></g></g><path fill="none" style="display:none"/></g><path fill="none" style="display:none"/></g><path style="display:none"/></g></svg>