<svg xmlns="http://www.w3.org/2000/svg" width="500" height="500" style="width:100%;height:100%;transform:translate3d(0,0,0);content-visibility:visible" viewBox="0 0 500 500"><defs><clipPath id="a"><path d="M0 0h500v500H0z"/></clipPath></defs><g clip-path="url(#a)"><path fill="none" stroke="#121330" stroke-linecap="round" stroke-linejoin="round" stroke-width="3.71" d="M41.413 4.273a29.184 29.184 0 0 0 8.581-20.684 29.19 29.19 0 0 0-8.581-20.696A29.118 29.118 0 0 0 24.011-45.5c-8.543-.961-17.427 1.837-23.977 8.393l-.035.035-.036-.035a29.184 29.184 0 0 0-20.684-8.581 29.189 29.189 0 0 0-20.695 8.581c-11.437 11.425-11.437 29.955 0 41.38L-.001 45.688 41.413 4.273z" style="display:block" transform="matrix(3.5 0 0 3.5 250 250)"/><path fill="none" stroke="#07A889" stroke-linecap="round" stroke-linejoin="round" stroke-width="4.41" d="M-13.393-45.431c-4.067-2.059-8.191-3.462-11.494-3.462a29.19 29.19 0 0 0-20.696 8.581 29.105 29.105 0 0 0-7.885 14.347" style="display:block" transform="matrix(2.73 0 0 2.73 250 250)"/><g class="com" style="display:none"><path/><path/><path/><path/><path/><path/><path/><path/><path/><path/><path/><path/></g></g></svg>