<svg xmlns="http://www.w3.org/2000/svg" width="430" height="430" style="width:100%;height:100%;transform:translate3d(0,0,0);content-visibility:visible" viewBox="0 0 430 430"><defs><filter id="a" width="100%" height="100%" x="0%" y="0%" filterUnits="objectBoundingBox"><feComponentTransfer in="SourceGraphic"><feFuncA tableValues="1.0 0.0" type="table"/></feComponentTransfer></filter><filter id="c" width="100%" height="100%" x="0%" y="0%" filterUnits="objectBoundingBox"><feComponentTransfer in="SourceGraphic"><feFuncA tableValues="1.0 0.0" type="table"/></feComponentTransfer></filter><filter id="e" width="100%" height="100%" x="0%" y="0%" filterUnits="objectBoundingBox"><feComponentTransfer in="SourceGraphic"><feFuncA tableValues="1.0 0.0" type="table"/></feComponentTransfer></filter><filter id="g" width="100%" height="100%" x="0%" y="0%" filterUnits="objectBoundingBox"><feComponentTransfer in="SourceGraphic"><feFuncA tableValues="1.0 0.0" type="table"/></feComponentTransfer></filter><filter id="i" width="100%" height="100%" x="0%" y="0%" filterUnits="objectBoundingBox"><feComponentTransfer in="SourceGraphic"><feFuncA tableValues="1.0 0.0" type="table"/></feComponentTransfer></filter><filter id="k" width="100%" height="100%" x="0%" y="0%" filterUnits="objectBoundingBox"><feComponentTransfer in="SourceGraphic"><feFuncA tableValues="1.0 0.0" type="table"/></feComponentTransfer></filter><filter id="m" width="100%" height="100%" x="0%" y="0%" filterUnits="objectBoundingBox"><feComponentTransfer in="SourceGraphic"><feFuncA tableValues="1.0 0.0" type="table"/></feComponentTransfer></filter><mask id="z" mask-type="alpha"><g filter="url(#a)"><path fill="#fff" d="M0 0h430v430H0z" opacity="0"/><use xmlns:ns1="http://www.w3.org/1999/xlink" ns1:href="#b"/></g></mask><mask id="y" mask-type="alpha"><g filter="url(#c)"><path fill="#fff" d="M0 0h430v430H0z" opacity="0"/><use xmlns:ns2="http://www.w3.org/1999/xlink" ns2:href="#d"/></g></mask><mask id="x" mask-type="alpha"><g filter="url(#e)"><path fill="#fff" d="M0 0h430v430H0z" opacity="0"/><use xmlns:ns3="http://www.w3.org/1999/xlink" ns3:href="#f"/></g></mask><mask id="v" mask-type="alpha"><g filter="url(#g)"><path fill="#fff" d="M0 0h430v430H0z" opacity="0"/><use xmlns:ns4="http://www.w3.org/1999/xlink" ns4:href="#h"/></g></mask><mask id="u" mask-type="alpha"><g filter="url(#i)"><path fill="#fff" d="M0 0h430v430H0z" opacity="0"/><use xmlns:ns5="http://www.w3.org/1999/xlink" ns5:href="#j"/></g></mask><mask id="s" mask-type="alpha"><g filter="url(#k)"><path fill="#fff" d="M0 0h430v430H0z" opacity="0"/><use xmlns:ns6="http://www.w3.org/1999/xlink" ns6:href="#l"/></g></mask><mask id="r" mask-type="alpha"><g filter="url(#m)"><path fill="#fff" d="M0 0h430v430H0z" opacity="0"/><use xmlns:ns7="http://www.w3.org/1999/xlink" ns7:href="#n"/></g></mask><clipPath id="p"><path d="M0 0h430v430H0z"/></clipPath><clipPath id="w"><path d="M0 0h430v430H0z"/></clipPath><clipPath id="o"><path d="M0 0h430v430H0z"/></clipPath><clipPath id="t"><path d="M0 0h430v430H0z"/></clipPath><clipPath id="q"><path d="M0 0h430v430H0z"/></clipPath><g id="f" clip-path="url(#o)" style="display:none"><path style="display:none"/><path style="display:none"/></g><g id="h" style="display:block"><path fill-opacity="0" stroke="#08A88A" stroke-linecap="round" stroke-linejoin="round" stroke-width="0" d="M317.392 212.813c.987 5.163 1.506 9.625 1.506 12.64 0 13.742-11.134 24.876-24.876 24.876-13.743 0-24.877-11.134-24.877-24.876 0-3.015.523-7.477 1.51-12.64h-57.176v-57.291c5.163.987 9.625 1.505 12.64 1.505 13.742 0 24.876-11.134 24.876-24.876s-11.134-24.876-24.876-24.876c-3.015 0-7.477.522-12.64 1.509V51.492c89.068.059 161.205 72.311 161.205 161.321h-57.292z" class="secondary"/><path fill="#08A88A" d="M317.392 212.813c.987 5.163 1.506 9.625 1.506 12.64 0 13.742-11.134 24.876-24.876 24.876-13.743 0-24.877-11.134-24.877-24.876 0-3.015.523-7.477 1.51-12.64h-57.176v-57.291c5.163.987 9.625 1.505 12.64 1.505 13.742 0 24.876-11.134 24.876-24.876s-11.134-24.876-24.876-24.876c-3.015 0-7.477.522-12.64 1.509V51.492c89.068.059 161.205 72.311 161.205 161.321h-57.292z" class="secondary"/></g><g id="j" style="display:block"><path fill-opacity="0" stroke="#08A88A" stroke-linecap="round" stroke-linejoin="round" stroke-width="0" d="M317.392 212.813c.987 5.163 1.506 9.625 1.506 12.64 0 13.742-11.134 24.876-24.876 24.876-13.743 0-24.877-11.134-24.877-24.876 0-3.015.523-7.477 1.51-12.64h-57.176v-57.291c5.163.987 9.625 1.505 12.64 1.505 13.742 0 24.876-11.134 24.876-24.876s-11.134-24.876-24.876-24.876c-3.015 0-7.477.522-12.64 1.509V51.492c89.068.059 161.205 72.311 161.205 161.321h-57.292z" class="secondary"/><path fill="#08A88A" d="M317.392 212.813c.987 5.163 1.506 9.625 1.506 12.64 0 13.742-11.134 24.876-24.876 24.876-13.743 0-24.877-11.134-24.877-24.876 0-3.015.523-7.477 1.51-12.64h-57.176v-57.291c5.163.987 9.625 1.505 12.64 1.505 13.742 0 24.876-11.134 24.876-24.876s-11.134-24.876-24.876-24.876c-3.015 0-7.477.522-12.64 1.509V51.492c89.068.059 161.205 72.311 161.205 161.321h-57.292z" class="secondary"/></g><g id="l" style="display:none"><path fill-opacity="0" stroke-linecap="round" stroke-linejoin="round" class="secondary"/><path class="secondary"/></g><g id="n" style="display:none"><path fill-opacity="0" stroke-linecap="round" stroke-linejoin="round" class="secondary"/><path class="secondary"/></g><path id="b" style="display:none"/><path id="d" style="display:none"/></defs><g clip-path="url(#p)"><g clip-path="url(#q)" style="display:none"><g mask="url(#r)" style="display:none"><path fill="none" class="primary"/></g><path fill="none" class="primary" style="display:none"/><g mask="url(#s)" style="display:none"><path fill="none" class="primary"/></g><path fill="none" class="secondary" style="display:none"/></g><g clip-path="url(#t)" style="display:block"><g mask="url(#u)" style="display:block"><path fill="none" stroke="#121331" stroke-linecap="round" stroke-linejoin="round" stroke-width="12.461" d="M374.626 215.252c-1.006 88.251-72.892 159.432-161.31 159.432v-57.292s0 0 0 0c-5.162.987-9.624 1.506-12.639 1.506-13.742 0-24.876-11.134-24.876-24.876 0-13.743 11.134-24.877 24.876-24.877 3.015 0 7.477.523 12.64 1.51v-56.49" class="primary"/></g><path fill="none" stroke="#121331" stroke-linecap="round" stroke-linejoin="round" stroke-width="12.461" d="M108.738 214.284c-.987-5.163-1.506-9.625-1.506-12.64 0-13.742 11.134-24.876 24.876-24.876 13.743 0 24.877 11.134 24.877 24.877 0 3.014-.523 7.476-1.51 12.639h57.176v57.292c-5.163-.987-9.625-1.506-12.64-1.506-13.742 0-24.876 11.134-24.876 24.876 0 13.743 11.134 24.877 24.876 24.877 3.015 0 7.477-.523 12.64-1.51v57.292c-89.068-.058-161.205-72.311-161.205-161.321h57.292z" class="primary" style="display:block"/><g mask="url(#v)" style="display:block"><path fill="none" stroke="#121331" stroke-linecap="round" stroke-linejoin="round" stroke-width="12.461" d="M212.813 211.416v2.202h-57.291c.987-5.162 1.505-9.624 1.505-12.639 0-13.742-11.134-24.876-24.876-24.876s-24.876 11.134-24.876 24.876c0 3.015.522 7.477 1.509 12.64H51.492c.059-87.47 69.738-158.609 156.542-161.136" class="primary"/></g><path fill="none" stroke="#08A88A" stroke-linecap="round" stroke-linejoin="round" stroke-width="12.461" d="M317.392 212.813c.987 5.163 1.506 9.625 1.506 12.64 0 13.742-11.134 24.876-24.876 24.876-13.743 0-24.877-11.134-24.877-24.876 0-3.015.523-7.477 1.51-12.64h-57.176v-57.291c5.163.987 9.625 1.505 12.64 1.505 13.742 0 24.876-11.134 24.876-24.876s-11.134-24.876-24.876-24.876c-3.015 0-7.477.522-12.64 1.509V51.492c89.068.059 161.205 72.311 161.205 161.321h-57.292z" class="secondary" style="display:block"/></g><g clip-path="url(#w)" style="display:none"><g mask="url(#x)" style="display:none"><path fill="none" class="primary"/></g><g mask="url(#y)" style="display:none"><path fill="none" class="primary"/></g><g mask="url(#z)" style="display:none"><path fill="none" class="primary"/></g><path fill="none" class="secondary" style="display:none"/></g></g></svg>