<svg version="1.0" width="682.667" height="682.667" viewBox="0 0 512 512" xmlns="http://www.w3.org/2000/svg"><path d="M249.5 42.9c-7 1.8-12.8 6.1-17.1 12.9-1.9 2.9-3.4 5.5-3.4 5.7 0 .3-1.1 2.2-2.3 4.3-1.3 2-3.5 5.7-4.9 8.2-1.4 2.5-7.6 13.3-13.8 24-14 24.1-20 34.7-27.4 47.5-3.1 5.5-6.1 10.7-6.6 11.5-.5.8-2.2 3.7-3.7 6.3l-2.7 4.8-42-41.9C102.4 103.1 81.9 83.4 80 82.5c-1.9-1-6.2-2-9.7-2.3-11.3-.9-21.1 4.7-26.1 14.7l-2.7 5.6.1 163 .1 163 2.8 7.5c3.1 8.5 6 13.3 11.2 19.1 4.2 4.7 13.1 10.9 18.9 13.4 10.5 4.4 7.7 4.3 183.8 4.1l167.1-.2 6.6-2.2c12.7-4.2 22.9-12.4 30.1-24.3 7.9-13 7.3 2.3 7.3-180.9V99.5l-2.1-4.5c-6.1-12.8-22.2-18.7-35.1-13-3.4 1.5-14.8 12.3-46.3 43.9l-41.9 41.9-4.7-8.2c-7.1-12.4-7.5-13.1-25.7-44.6-9.3-16.2-17.8-30.9-18.7-32.5-.9-1.7-2.9-5-4.3-7.5-1.5-2.5-4.8-8.3-7.4-12.9-5.4-9.6-9.5-14.2-15.4-17.1-4.4-2.3-13.6-3.3-18.4-2.1zm-53.2 230c.6.6 1.8 1.1 2.7 1.1 2.5 0 10.1 8.2 12.1 13.1 2.1 5.1 2.4 13.1.8 18-1.7 5-7.5 11.6-12.2 14.1-5.4 2.8-6.1 3-12.9 3-9.7 0-17.8-5.4-22.7-15.1-3-5.8-2.4-17.2 1.2-22.8 5.9-9.3 13.4-13.3 23.5-12.8 3.5.2 6.9.8 7.5 1.4zm136.2 0c5.6 2 11.3 7.7 14.1 13.9 7.3 16.2-5.2 35.5-23.1 35.5-10.8 0-21.7-8-24.6-18-2-6.9-1.5-12.6 1.6-19 5.7-11.6 19.7-17 32-12.4z" fill="#08c08a"/></svg>